#N canvas 97 59 1366 686 10;
#X obj 183 115 bng 15 250 50 0 empty empty empty 17 7 0 10 -262144
-1 -1;
#X floatatom 391 159 5 0 0 0 - - -, f 5;
#X floatatom 453 155 5 0 0 0 - - -, f 5;
#X floatatom 290 112 5 0 0 0 - - -, f 5;
#X obj 353 115 random 5;
#X obj 202 85 random 5;
#X floatatom 525 145 5 0 0 0 - - -, f 5;
#X obj 484 65 random 5;
#X obj 366 262 ==;
#X obj 526 403 ==;
#X obj 566 396 ==;
#X floatatom 364 327 5 0 0 0 - - -, f 5;
#X floatatom 604 448 5 0 0 0 - - -, f 5;
#X floatatom 530 446 5 0 0 0 - - -, f 5;
#X obj 365 359 sel 1;
#X obj 365 408 bng 15 250 50 0 empty empty empty 17 7 0 10 -262144
-1 -1;
#X obj 531 477 sel 1;
#X obj 531 526 bng 15 250 50 0 empty empty empty 17 7 0 10 -262144
-1 -1;
#X obj 605 478 sel 1;
#X obj 605 527 bng 15 250 50 0 empty empty empty 17 7 0 10 -262144
-1 -1;
#X text 178 262 identique au(x) precedent(s)?;
#X text 228 357 si oui \, relancer;
#X obj 282 11 bng 15 250 50 0 empty empty empty 17 7 0 10 -262144 -1
-1;
#X obj 463 9 bng 15 250 50 0 empty empty empty 17 7 0 10 -262144 -1
-1;
#X floatatom 140 138 5 0 0 0 - - -, f 5;
#X floatatom 194 138 5 0 0 0 - - -, f 5;
#X floatatom 243 139 5 0 0 0 - - -, f 5;
#X text 115 113 cascade 1;
#X text 216 9 cascade 2;
#X text 386 8 cascade 3;
#X obj 3 50 inlet;
#X obj 376 49 inlet;
#X obj 622 96 random 5;
#X obj 616 9 bng 15 250 50 0 empty empty empty 17 7 0 10 -262144 -1
-1;
#X text 539 8 cascade 4;
#X floatatom 591 148 5 0 0 0 - - -, f 5;
#X obj 914 207 ==;
#X obj 974 214 ==;
#X obj 1014 207 ==;
#X floatatom 916 244 5 0 0 0 - - -, f 5;
#X floatatom 1069 246 5 0 0 0 - - -, f 5;
#X floatatom 995 244 5 0 0 0 - - -, f 5;
#X obj 917 276 sel 1;
#X obj 917 325 bng 15 250 50 0 empty empty empty 17 7 0 10 -262144
-1 -1;
#X obj 996 275 sel 1;
#X obj 996 324 bng 15 250 50 0 empty empty empty 17 7 0 10 -262144
-1 -1;
#X obj 1070 276 sel 1;
#X obj 1070 325 bng 15 250 50 0 empty empty empty 17 7 0 10 -262144
-1 -1;
#X floatatom 288 138 5 0 0 0 - - -, f 5;
#X text 290 27 cascades declenchées si précédent nombre change;
#X obj 808 602 spigot;
#X obj 860 601 spigot;
#X obj 911 600 spigot;
#X text 810 630 ne tire 2 3 ou 4 valeurs que si le range est supérieur
à 1 2 ou 3;
#X obj 21 617 bng 15 250 50 0 empty empty empty 17 7 0 10 -262144 -1
-1;
#X obj 92 31 inlet;
#X obj 145 36 inlet;
#X obj 198 37 inlet;
#X obj 267 43 inlet;
#X obj 45 201 f;
#X obj 102 205 f;
#X obj 75 202 f;
#X obj 133 200 f;
#X obj 45 296 outlet;
#X obj 97 295 outlet;
#X obj 158 294 outlet;
#X obj 210 296 outlet;
#X floatatom 257 648 5 0 0 0 - - -, f 5;
#X obj 64 662 bng 15 250 50 0 empty empty empty 17 7 0 10 -262144 -1
-1;
#X obj 105 662 bng 15 250 50 0 empty empty empty 17 7 0 10 -262144
-1 -1;
#X obj 143 662 bng 15 250 50 0 empty empty empty 17 7 0 10 -262144
-1 -1;
#X obj 184 662 bng 15 250 50 0 empty empty empty 17 7 0 10 -262144
-1 -1;
#X floatatom 27 812 5 0 0 0 - - -, f 5;
#X floatatom 81 812 5 0 0 0 - - -, f 5;
#X floatatom 130 813 5 0 0 0 - - -, f 5;
#X floatatom 175 812 5 0 0 0 - - -, f 5;
#X text 44 614 lancer le tirage;
#X text 296 649 reglage du range;
#X text 35 789 sortie valeurs declenchées par bang;
#X obj -7 296 outlet;
#X obj 13 200 f;
#X obj 52 30 inlet;
#X obj 218 662 bng 15 250 50 0 empty empty empty 17 7 0 10 -262144
-1 -1;
#X floatatom 222 813 5 0 0 0 - - -, f 5;
#X text 64 640 5bangs declencheurs;
#X text 23 831 init;
#X text 72 831 rnd1;
#X text 122 833 rnd2;
#X text 169 834 rnd3;
#X text 218 834 rnd4;
#X text 47 674 init;
#X text 82 674 rnd1;
#X text 130 673 rnd2;
#X text 172 674 rnd3;
#X text 206 674 rnd4;
#X text 48 1 comment;
#X text 102 168 last;
#X text 148 167 rd1;
#X text 201 167 rd2;
#X text 255 167 rd3;
#X text 303 168 rd4;
#X obj 29 696 pd4random+1;
#X obj 104 457 spigot;
#X obj 156 456 spigot;
#X obj 210 460 spigot;
#X obj 102 430 > 1;
#X obj 154 429 > 2;
#X obj 208 435 > 3;
#X obj 54 459 spigot;
#X obj 52 432 > 0;
#X obj 242 61 - 1;
#X obj 369 84 - 1;
#X obj 583 63 - 1;
#X obj 456 40 - 1;
#X obj 712 297 + 1;
#X obj 739 297 + 1;
#X obj 774 305 + 1;
#X obj 810 311 + 1;
#X obj 909 573 > 4;
#X obj 858 574 > 3;
#X obj 806 575 > 2;
#X obj 366 383 delay 100;
#X obj 532 501 delay 200;
#X obj 605 502 delay 250;
#X obj 918 300 delay 300;
#X obj 997 299 delay 350;
#X obj 1071 300 delay 400;
#X text 99 98 tirage;
#X obj 258 456 spigot;
#X obj 256 431 > 4;
#X text 75 501 n'envoie des "valeurs bangées" que si plus de 1 2 ou
3 4 contrib;
#X text 204 112 rng=nbcntrib;
#X connect 0 0 5 0;
#X connect 1 0 8 1;
#X connect 1 0 10 1;
#X connect 1 0 36 1;
#X connect 1 0 50 0;
#X connect 1 0 114 0;
#X connect 2 0 8 0;
#X connect 2 0 9 1;
#X connect 2 0 37 1;
#X connect 2 0 51 0;
#X connect 2 0 115 0;
#X connect 3 0 7 1;
#X connect 3 0 80 1;
#X connect 3 0 105 0;
#X connect 3 0 106 0;
#X connect 3 0 107 0;
#X connect 3 0 109 0;
#X connect 3 0 110 0;
#X connect 3 0 111 0;
#X connect 3 0 113 0;
#X connect 3 0 112 0;
#X connect 3 0 118 0;
#X connect 3 0 119 0;
#X connect 3 0 120 0;
#X connect 3 0 129 0;
#X connect 4 0 2 0;
#X connect 5 0 1 0;
#X connect 6 0 9 0;
#X connect 6 0 10 0;
#X connect 6 0 38 1;
#X connect 6 0 52 0;
#X connect 6 0 116 0;
#X connect 7 0 6 0;
#X connect 8 0 11 0;
#X connect 9 0 13 0;
#X connect 10 0 12 0;
#X connect 11 0 14 0;
#X connect 12 0 18 0;
#X connect 13 0 16 0;
#X connect 14 0 121 0;
#X connect 15 0 4 0;
#X connect 16 0 122 0;
#X connect 17 0 7 0;
#X connect 18 0 123 0;
#X connect 19 0 7 0;
#X connect 22 0 4 0;
#X connect 23 0 7 0;
#X connect 24 0 59 1;
#X connect 25 0 61 1;
#X connect 26 0 60 1;
#X connect 30 0 0 0;
#X connect 31 0 3 0;
#X connect 32 0 35 0;
#X connect 33 0 32 0;
#X connect 35 0 36 0;
#X connect 35 0 37 0;
#X connect 35 0 38 0;
#X connect 35 0 117 0;
#X connect 36 0 39 0;
#X connect 37 0 41 0;
#X connect 38 0 40 0;
#X connect 39 0 42 0;
#X connect 40 0 46 0;
#X connect 41 0 44 0;
#X connect 42 0 124 0;
#X connect 43 0 32 0;
#X connect 44 0 125 0;
#X connect 45 0 32 0;
#X connect 46 0 126 0;
#X connect 47 0 32 0;
#X connect 48 0 62 1;
#X connect 50 0 22 0;
#X connect 51 0 23 0;
#X connect 52 0 33 0;
#X connect 54 0 101 0;
#X connect 55 0 59 0;
#X connect 56 0 61 0;
#X connect 57 0 60 0;
#X connect 58 0 62 0;
#X connect 59 0 102 0;
#X connect 60 0 104 0;
#X connect 61 0 103 0;
#X connect 62 0 128 0;
#X connect 67 0 101 6;
#X connect 68 0 101 1;
#X connect 69 0 101 2;
#X connect 70 0 101 3;
#X connect 71 0 101 4;
#X connect 80 0 108 0;
#X connect 81 0 80 0;
#X connect 82 0 101 5;
#X connect 101 0 72 0;
#X connect 101 1 73 0;
#X connect 101 2 74 0;
#X connect 101 3 75 0;
#X connect 101 4 83 0;
#X connect 102 0 63 0;
#X connect 103 0 64 0;
#X connect 104 0 65 0;
#X connect 105 0 102 1;
#X connect 106 0 103 1;
#X connect 107 0 104 1;
#X connect 108 0 79 0;
#X connect 109 0 108 1;
#X connect 110 0 5 1;
#X connect 111 0 4 1;
#X connect 112 0 32 1;
#X connect 113 0 7 1;
#X connect 114 0 24 0;
#X connect 115 0 25 0;
#X connect 116 0 26 0;
#X connect 117 0 48 0;
#X connect 118 0 52 1;
#X connect 119 0 51 1;
#X connect 120 0 50 1;
#X connect 121 0 15 0;
#X connect 122 0 17 0;
#X connect 123 0 19 0;
#X connect 124 0 43 0;
#X connect 125 0 45 0;
#X connect 126 0 47 0;
#X connect 128 0 66 0;
#X connect 129 0 128 1;
#X coords 0 -1 10 10 230 85 1 100 100;
