#N canvas 2 107 1366 686 10;
#X obj 73 64 loadbang;
#X obj 98 240 bng 15 250 50 0 empty empty empty 0 -6 0 8 -262144 -1
-1;
#X obj 103 36 bng 15 250 50 0 empty empty empty 17 7 0 10 -262144 -1
-1;
#X msg 233 152 stop;
#X obj 97 216 metro 2000;
#X obj 322 339 + 1;
#X obj 246 316 float;
#X floatatom 247 375 5 0 0 0 - - -, f 5;
#X floatatom 255 479 5 0 0 0 - - -, f 5;
#X obj 164 114 vradio 15 1 0 2 empty empty empty 0 -8 0 10 -262144
-1 -1 1;
#X obj 338 484 sel 1;
#X obj 258 435 mod 2;
#X obj 644 506 dac~;
#X obj 670 475 *~;
#X obj 108 158 line~;
#X msg 493 90 \; pd dsp 1;
#X msg 108 133 0 600;
#X obj 681 413 osc~ 440;
#X obj 235 4 inlet;
#X msg 108 110 0.2 10;
#X connect 0 0 4 0;
#X connect 0 0 19 0;
#X connect 0 0 15 0;
#X connect 1 0 6 0;
#X connect 3 0 4 0;
#X connect 4 0 1 0;
#X connect 5 0 6 1;
#X connect 6 0 5 0;
#X connect 6 0 7 0;
#X connect 7 0 11 0;
#X connect 8 0 9 0;
#X connect 9 0 10 0;
#X connect 10 0 3 0;
#X connect 10 0 16 0;
#X connect 11 0 8 0;
#X connect 13 0 12 0;
#X connect 13 0 12 1;
#X connect 14 0 13 1;
#X connect 16 0 14 0;
#X connect 17 0 13 0;
#X connect 18 0 15 0;
#X connect 18 0 19 0;
#X connect 18 0 4 0;
#X connect 19 0 14 0;
#X coords 0 -1 1 1 85 90 1 100 100;
