#N canvas 387 213 1368 686 10;
#X obj 497 85 + 1;
#X obj 440 -17 bng 15 250 50 0 empty empty empty 17 7 0 10 -262144
-1 -1;
#X obj 421 62 float;
#X floatatom 422 121 5 0 0 0 - - -, f 5;
#X floatatom 430 225 5 0 0 0 - - -, f 5;
#X obj 572 71 vradio 15 1 0 11 empty empty empty 0 -8 0 10 -262144
-1 -1 0;
#X obj 1480 268 readsf~;
#X obj 1401 326 *~ 1;
#X obj 1399 367 dac~;
#X msg 1253 57 start;
#X obj 1488 -37 vsl 15 128 0 1 0 0 empty empty empty 0 -9 0 10 -262144
-1 -1 0 1;
#X msg 1224 -1 stop;
#X obj 432 181 mod 11;
#X obj 574 258 sel 0 1 2 3 4 5 6 7 8 9 10;
#X obj 549 360 bng 15 250 50 0 empty empty empty 17 7 0 10 -262144
-1 -1;
#X obj 567 360 bng 15 250 50 0 empty empty empty 17 7 0 10 -262144
-1 -1;
#X obj 585 360 bng 15 250 50 0 empty empty empty 17 7 0 10 -262144
-1 -1;
#X obj 603 360 bng 15 250 50 0 empty empty empty 17 7 0 10 -262144
-1 -1;
#X obj 621 360 bng 15 250 50 0 empty empty empty 17 7 0 10 -262144
-1 -1;
#X obj 639 360 bng 15 250 50 0 empty empty empty 17 7 0 10 -262144
-1 -1;
#X obj 657 360 bng 15 250 50 0 empty empty empty 17 7 0 10 -262144
-1 -1;
#X obj 675 360 bng 15 250 50 0 empty empty empty 17 7 0 10 -262144
-1 -1;
#X obj 693 360 bng 15 250 50 0 empty empty empty 17 7 0 10 -262144
-1 -1;
#X obj 711 360 bng 15 250 50 0 empty empty empty 17 7 0 10 -262144
-1 -1;
#X obj 729 360 bng 15 250 50 0 empty empty empty 17 7 0 10 -262144
-1 -1;
#X obj 758 322 bng 15 250 50 0 empty empty empty 17 7 0 10 -262144
-1 -1;
#X msg 572 -24 0;
#X text 615 -23 remise a zero compteur;
#X text 475 456 1 contrib1;
#X text 475 480 2 virgule;
#X text 475 527 4 virgule;
#X text 475 573 6 virgule;
#X text 475 620 8 virgule;
#X text 475 665 10 son sortie;
#X text 828 249 0 son intro;
#X text 475 503 3 contrib rd1;
#X text 475 549 5 contrib rd2;
#X text 475 597 7 contrib rd3;
#X text 475 642 9 contrib rd4;
#X text 591 85 1 contrib1;
#X text 592 99 2 virgule;
#X text 593 129 4 virgule;
#X text 593 159 6 virgule;
#X text 592 188 8 virgule;
#X text 591 221 10 son sortie;
#X text 592 114 3 contrib rd1;
#X text 593 143 5 contrib rd2;
#X text 592 174 7 contrib rd3;
#X text 592 205 9 contrib rd4;
#X text 590 70 0 son intro;
#X obj 39 -26 loadbang;
#X msg 24 57 \; pd dsp 1;
#X obj 136 270 pd4random+1rules;
#X obj 1214 563 random;
#X floatatom 1297 519 5 0 0 0 - - -, f 5;
#X floatatom 1219 673 5 0 0 0 - - -, f 5;
#X obj 1210 511 bng 15 250 50 0 empty empty empty 17 7 0 10 -262144
-1 -1;
#X obj 1215 619 + 1;
#X obj 109 51 inlet;
#X obj 178 51 inlet;
#X obj 243 48 inlet;
#X text 111 111 nbcontrib;
#X text 235 110 start;
#X text 353 110 stop;
#X msg 638 500 open /home/pi/concerteurClient/sounds/\$1.wav;
#X msg 639 550 open /home/pi/concerteurClient/sounds/\$1.wav;
#X msg 636 596 open /home/pi/concerteurClient/sounds/\$1.wav;
#X msg 634 642 open /home/pi/concerteurClient/sounds/\$1.wav;
#X msg 639 457 open /home/pi/concerteurClient/sounds/\$1.wav;
#X msg 568 480 open /home/pi/concerteurClient/designsonore/22VIRGULE_1.wav
;
#X msg 917 243 open /home/pi/concerteurClient/designsonore/22Entree+NOTIF.wav
;
#X msg 568 523 open /home/pi/concerteurClient/designsonore/22VIRGULE_2.wav
;
#X msg 566 575 open /home/pi/concerteurClient/designsonore/22VIRGULE_3.wav
;
#X msg 566 618 open /home/pi/concerteurClient/designsonore/22VIRGULE_4c.wav
;
#X msg 566 664 open /home/pi/concerteurClient/designsonore/22VIRGULE_5.wav
;
#X connect 0 0 2 1;
#X connect 1 0 2 0;
#X connect 2 0 0 0;
#X connect 2 0 3 0;
#X connect 3 0 12 0;
#X connect 4 0 5 0;
#X connect 5 0 13 0;
#X connect 6 0 7 0;
#X connect 6 1 1 0;
#X connect 7 0 8 0;
#X connect 7 0 8 1;
#X connect 9 0 6 0;
#X connect 10 0 7 1;
#X connect 11 0 6 0;
#X connect 11 0 26 0;
#X connect 12 0 4 0;
#X connect 13 0 14 0;
#X connect 13 1 15 0;
#X connect 13 2 16 0;
#X connect 13 3 17 0;
#X connect 13 4 18 0;
#X connect 13 5 19 0;
#X connect 13 6 20 0;
#X connect 13 7 21 0;
#X connect 13 8 22 0;
#X connect 13 9 23 0;
#X connect 13 10 24 0;
#X connect 13 11 25 0;
#X connect 15 0 52 1;
#X connect 16 0 69 0;
#X connect 17 0 52 2;
#X connect 18 0 71 0;
#X connect 19 0 52 3;
#X connect 20 0 72 0;
#X connect 21 0 52 4;
#X connect 22 0 73 0;
#X connect 23 0 52 5;
#X connect 24 0 74 0;
#X connect 26 0 2 0;
#X connect 50 0 51 0;
#X connect 52 0 68 0;
#X connect 52 1 64 0;
#X connect 52 2 65 0;
#X connect 52 3 66 0;
#X connect 52 4 67 0;
#X connect 53 0 57 0;
#X connect 54 0 53 1;
#X connect 56 0 53 0;
#X connect 57 0 55 0;
#X connect 58 0 52 6;
#X connect 59 0 70 0;
#X connect 60 0 11 0;
#X connect 64 0 6 0;
#X connect 64 0 9 0;
#X connect 65 0 6 0;
#X connect 65 0 9 0;
#X connect 66 0 6 0;
#X connect 66 0 9 0;
#X connect 67 0 6 0;
#X connect 67 0 9 0;
#X connect 68 0 6 0;
#X connect 68 0 9 0;
#X connect 69 0 6 0;
#X connect 69 0 9 0;
#X connect 70 0 6 0;
#X connect 70 0 9 0;
#X connect 70 0 52 0;
#X connect 70 0 26 0;
#X connect 71 0 6 0;
#X connect 71 0 9 0;
#X connect 72 0 6 0;
#X connect 72 0 9 0;
#X connect 73 0 6 0;
#X connect 73 0 9 0;
#X connect 74 0 6 0;
#X connect 74 0 9 0;
#X coords 0 -1 1 1 300 300 1 100 100;
