#N canvas 589 116 915 760 10;
#X obj 98 124 bng 15 250 50 0 empty empty empty 17 7 0 10 -262144 -1
-1;
#X floatatom 256 223 5 0 0 0 - - -, f 5;
#X obj 129 166 wiringPi pin 17 input;
#X obj 50 289 print input-17;
#X obj 199 7 bng 15 250 50 0 empty empty empty 17 7 0 10 -262144 -1
-1;
#X obj 216 42 metro 100;
#X obj 262 412 bng 50 250 50 0 empty empty empty 17 7 0 10 -258113
-1 -1;
#X obj 248 336 sel 1;
#X obj 386 281 change;
#X obj 457 575 dac~;
#X obj 630 352 osc~ 440;
#X obj 704 261 vsl 15 128 0 10000 0 0 empty empty empty 0 -9 0 10 -262144
-1 -1 0 1;
#X msg 350 470 0.5;
#X msg 340 352 0;
#X obj 377 6 loadbang;
#X msg 384 102 \; pd dsp 0;
#X msg 378 39 \; pd dsp 1;
#X obj 453 517 *~ 0;
#X connect 0 0 2 0;
#X connect 1 0 8 0;
#X connect 2 0 3 0;
#X connect 2 0 1 0;
#X connect 4 0 5 0;
#X connect 5 0 0 0;
#X connect 6 0 12 0;
#X connect 7 0 6 0;
#X connect 7 1 13 0;
#X connect 8 0 7 0;
#X connect 10 0 17 0;
#X connect 11 0 10 0;
#X connect 12 0 17 1;
#X connect 13 0 17 1;
#X connect 14 0 4 0;
#X connect 14 0 16 0;
#X connect 17 0 9 0;
#X connect 17 0 9 1;
